<svg viewBox="0 0 3840 2160" width="3840" height="2160"
    xmlns="http://www.w3.org/2000/svg" xmlns:xlink="http://www.w3.org/1999/xlink" version="1.1">
    <path
        d="M0 1497L91.5 1516.5C183 1536 366 1575 548.8 1543.8C731.7 1512.7 914.3 1411.3 1097.2 1405.5C1280 1399.7 1463 1489.3 1645.8 1499.7C1828.7 1510 2011.3 1441 2194.2 1390.3C2377 1339.7 2560 1307.3 2742.8 1329C2925.7 1350.7 3108.3 1426.3 3291.2 1451.2C3474 1476 3657 1450 3748.5 1437L3840 1424L3840 2161L3748.5 2161C3657 2161 3474 2161 3291.2 2161C3108.3 2161 2925.7 2161 2742.8 2161C2560 2161 2377 2161 2194.2 2161C2011.3 2161 1828.7 2161 1645.8 2161C1463 2161 1280 2161 1097.2 2161C914.3 2161 731.7 2161 548.8 2161C366 2161 183 2161 91.5 2161L0 2161Z"
        fill="#ffa914"></path>
    <path
        d="M0 1658L91.5 1663.8C183 1669.7 366 1681.3 548.8 1643.2C731.7 1605 914.3 1517 1097.2 1497.8C1280 1478.7 1463 1528.3 1645.8 1578.3C1828.7 1628.3 2011.3 1678.7 2194.2 1694.7C2377 1710.7 2560 1692.3 2742.8 1649C2925.7 1605.7 3108.3 1537.3 3291.2 1508.8C3474 1480.3 3657 1491.7 3748.5 1497.3L3840 1503L3840 2161L3748.5 2161C3657 2161 3474 2161 3291.2 2161C3108.3 2161 2925.7 2161 2742.8 2161C2560 2161 2377 2161 2194.2 2161C2011.3 2161 1828.7 2161 1645.8 2161C1463 2161 1280 2161 1097.2 2161C914.3 2161 731.7 2161 548.8 2161C366 2161 183 2161 91.5 2161L0 2161Z"
        fill="#f69413"></path>
    <path
        d="M0 1813L91.5 1805.2C183 1797.3 366 1781.7 548.8 1771.3C731.7 1761 914.3 1756 1097.2 1731.7C1280 1707.3 1463 1663.7 1645.8 1646.7C1828.7 1629.7 2011.3 1639.3 2194.2 1637.8C2377 1636.3 2560 1623.7 2742.8 1646.3C2925.7 1669 3108.3 1727 3291.2 1746C3474 1765 3657 1745 3748.5 1735L3840 1725L3840 2161L3748.5 2161C3657 2161 3474 2161 3291.2 2161C3108.3 2161 2925.7 2161 2742.8 2161C2560 2161 2377 2161 2194.2 2161C2011.3 2161 1828.7 2161 1645.8 2161C1463 2161 1280 2161 1097.2 2161C914.3 2161 731.7 2161 548.8 2161C366 2161 183 2161 91.5 2161L0 2161Z"
        fill="#ec8014"></path>
    <path
        d="M0 1761L91.5 1788.5C183 1816 366 1871 548.8 1888.2C731.7 1905.3 914.3 1884.7 1097.2 1880.5C1280 1876.3 1463 1888.7 1645.8 1877C1828.7 1865.3 2011.3 1829.7 2194.2 1832.8C2377 1836 2560 1878 2742.8 1886.2C2925.7 1894.3 3108.3 1868.7 3291.2 1862.3C3474 1856 3657 1869 3748.5 1875.5L3840 1882L3840 2161L3748.5 2161C3657 2161 3474 2161 3291.2 2161C3108.3 2161 2925.7 2161 2742.8 2161C2560 2161 2377 2161 2194.2 2161C2011.3 2161 1828.7 2161 1645.8 2161C1463 2161 1280 2161 1097.2 2161C914.3 2161 731.7 2161 548.8 2161C366 2161 183 2161 91.5 2161L0 2161Z"
        fill="#e16c16"></path>
    <path
        d="M0 1948L91.5 1951.7C183 1955.3 366 1962.7 548.8 1957.3C731.7 1952 914.3 1934 1097.2 1928.3C1280 1922.7 1463 1929.3 1645.8 1951.8C1828.7 1974.3 2011.3 2012.7 2194.2 2025.7C2377 2038.7 2560 2026.3 2742.8 2000.7C2925.7 1975 3108.3 1936 3291.2 1942.2C3474 1948.3 3657 1999.7 3748.5 2025.3L3840 2051L3840 2161L3748.5 2161C3657 2161 3474 2161 3291.2 2161C3108.3 2161 2925.7 2161 2742.8 2161C2560 2161 2377 2161 2194.2 2161C2011.3 2161 1828.7 2161 1645.8 2161C1463 2161 1280 2161 1097.2 2161C914.3 2161 731.7 2161 548.8 2161C366 2161 183 2161 91.5 2161L0 2161Z"
        fill="#d55819"></path>
</svg>
