<svg viewBox="0 0 3840 2160" width="3840" height="2160"
    xmlns="http://www.w3.org/2000/svg" xmlns:xlink="http://www.w3.org/1999/xlink" version="1.1">
    <path
        d="M0 1313L91.5 1336.3C183 1359.7 366 1406.3 548.8 1417C731.7 1427.7 914.3 1402.3 1097.2 1413.5C1280 1424.7 1463 1472.3 1645.8 1465C1828.7 1457.7 2011.3 1395.3 2194.2 1375.5C2377 1355.7 2560 1378.3 2742.8 1399.7C2925.7 1421 3108.3 1441 3291.2 1437.7C3474 1434.3 3657 1407.7 3748.5 1394.3L3840 1381L3840 2161L3748.5 2161C3657 2161 3474 2161 3291.2 2161C3108.3 2161 2925.7 2161 2742.8 2161C2560 2161 2377 2161 2194.2 2161C2011.3 2161 1828.7 2161 1645.8 2161C1463 2161 1280 2161 1097.2 2161C914.3 2161 731.7 2161 548.8 2161C366 2161 183 2161 91.5 2161L0 2161Z"
        fill="#ffa914"></path>
    <path
        d="M0 1649L91.5 1657C183 1665 366 1681 548.8 1651.2C731.7 1621.3 914.3 1545.7 1097.2 1526.5C1280 1507.3 1463 1544.7 1645.8 1542.8C1828.7 1541 2011.3 1500 2194.2 1513.2C2377 1526.3 2560 1593.7 2742.8 1590C2925.7 1586.3 3108.3 1511.7 3291.2 1493.2C3474 1474.7 3657 1512.3 3748.5 1531.2L3840 1550L3840 2161L3748.5 2161C3657 2161 3474 2161 3291.2 2161C3108.3 2161 2925.7 2161 2742.8 2161C2560 2161 2377 2161 2194.2 2161C2011.3 2161 1828.7 2161 1645.8 2161C1463 2161 1280 2161 1097.2 2161C914.3 2161 731.7 2161 548.8 2161C366 2161 183 2161 91.5 2161L0 2161Z"
        fill="#f69413"></path>
    <path
        d="M0 1762L91.5 1744.3C183 1726.7 366 1691.3 548.8 1662.7C731.7 1634 914.3 1612 1097.2 1605.5C1280 1599 1463 1608 1645.8 1631C1828.7 1654 2011.3 1691 2194.2 1712.8C2377 1734.7 2560 1741.3 2742.8 1747.5C2925.7 1753.7 3108.3 1759.3 3291.2 1770.5C3474 1781.7 3657 1798.3 3748.5 1806.7L3840 1815L3840 2161L3748.5 2161C3657 2161 3474 2161 3291.2 2161C3108.3 2161 2925.7 2161 2742.8 2161C2560 2161 2377 2161 2194.2 2161C2011.3 2161 1828.7 2161 1645.8 2161C1463 2161 1280 2161 1097.2 2161C914.3 2161 731.7 2161 548.8 2161C366 2161 183 2161 91.5 2161L0 2161Z"
        fill="#ec8014"></path>
    <path
        d="M0 1739L91.5 1743.3C183 1747.7 366 1756.3 548.8 1772.3C731.7 1788.3 914.3 1811.7 1097.2 1839.7C1280 1867.7 1463 1900.3 1645.8 1901C1828.7 1901.7 2011.3 1870.3 2194.2 1842.3C2377 1814.3 2560 1789.7 2742.8 1804.3C2925.7 1819 3108.3 1873 3291.2 1889.3C3474 1905.7 3657 1884.3 3748.5 1873.7L3840 1863L3840 2161L3748.5 2161C3657 2161 3474 2161 3291.2 2161C3108.3 2161 2925.7 2161 2742.8 2161C2560 2161 2377 2161 2194.2 2161C2011.3 2161 1828.7 2161 1645.8 2161C1463 2161 1280 2161 1097.2 2161C914.3 2161 731.7 2161 548.8 2161C366 2161 183 2161 91.5 2161L0 2161Z"
        fill="#e16c16"></path>
    <path
        d="M0 1929L91.5 1938.2C183 1947.3 366 1965.7 548.8 1960.8C731.7 1956 914.3 1928 1097.2 1913.3C1280 1898.7 1463 1897.3 1645.8 1918.8C1828.7 1940.3 2011.3 1984.7 2194.2 1993C2377 2001.3 2560 1973.7 2742.8 1965.8C2925.7 1958 3108.3 1970 3291.2 1983.8C3474 1997.7 3657 2013.3 3748.5 2021.2L3840 2029L3840 2161L3748.5 2161C3657 2161 3474 2161 3291.2 2161C3108.3 2161 2925.7 2161 2742.8 2161C2560 2161 2377 2161 2194.2 2161C2011.3 2161 1828.7 2161 1645.8 2161C1463 2161 1280 2161 1097.2 2161C914.3 2161 731.7 2161 548.8 2161C366 2161 183 2161 91.5 2161L0 2161Z"
        fill="#d55819"></path>
</svg>
