<svg xmlns="http://www.w3.org/2000/svg" viewBox="0 0 512 512">
  <defs/>
  <path fill="#264de4" d="M71.357,460.819 L30.272,0 L481.728,0 L440.599,460.746 L255.724,512 Z"/>
  <path fill="#2965f1" d="M405.388,431.408 L440.536,37.678 L256,37.678 L256,472.824 Z"/>
  <path fill="#ebebeb" d="M124.46,208.59 L129.525,265.107 L256,265.107 L256,208.59 Z M119.419,150.715 L256,150.715 L256,94.197 L114.281,94.197 Z M256,355.372 L255.752,355.438 L192.808,338.442 L188.785,293.366 L132.049,293.366 L139.968,382.107 L255.74,414.247 L256,414.174 Z"/>
  <path fill="#fff" d="M255.805,208.59 L255.805,265.107 L325.4,265.107 L318.84,338.406 L255.805,355.419 L255.805,414.219 L371.669,382.107 L372.519,372.558 L385.799,223.766 L387.179,208.59 L397.382,94.197 L255.805,94.197 L255.805,150.715 L335.444,150.715 L330.3,208.59 Z"/>
</svg>
