<svg xmlns="http://www.w3.org/2000/svg" viewBox="0 0 512 512">
  <defs/>
  <path fill="#E34F26" d="M71,460 L30,0 L481,0 L440,460 L255,512"/>
  <path fill="#EF652A" d="M256,472 L405,431 L440,37 L256,37"/>
  <path fill="#EBEBEB" d="M256,208 L181,208 L176,150 L256,150 L256,94 L255,94 L114,94 L115,109 L129,265 L256,265 Z M256,355 L255,355 L192,338 L188,293 L158,293 L132,293 L139,382 L255,414 L256,414 Z"/>
  <path fill="#FFF" d="M255,208 L255,265 L325,265 L318,338 L255,355 L255,414 L371,382 L372,372 L385,223 L387,208 L371,208 Z M255,94 L255,129 L255,150 L255,150 L392,150 L392,150 L392,150 L393,138 L396,109 L397,94 Z"/>
</svg>
