<svg xmlns="http://www.w3.org/2000/svg" version="1.0" viewBox="0 0 947 947">
  <defs/>
  <path fill="#000080" d="M835.5,473.6 C835.5,273.8 673.3,111.6 473.5,111.6 C273.7,111.6 111.5,273.8 111.5,473.6 C111.5,673.4 273.7,835.6 473.5,835.6 C673.3,835.6 835.5,673.4 835.5,473.6"/>
  <path fill="#FFFFFF" d="M729.5,323.6 C729.5,265.1 682,217.6 623.5,217.6 C565,217.6 517.5,265.1 517.5,323.6 C517.5,382.1 565,429.6 623.5,429.6 C682,429.6 729.5,382.1 729.5,323.6"/>
  <path fill="#000080" d="M941.5,111.5 C941.5,53 894,5.5 835.5,5.5 C777,5.5 729.5,53 729.5,111.5 C729.5,170 777,217.5 835.5,217.5 C894,217.5 941.5,170.1 941.5,111.5"/>
  <path fill="#FFFFFF" d="M258.1,627.8 L375.4,627.8 L375.4,654.5 L227.8,654.5 L227.8,417 L258.1,417 L258.1,627.8 Z M515.5,654.5 L515.5,630.7 C499.5,653.2 483.6,662 458.5,662 C425.3,662 404.1,643.8 404.1,615.4 L404.1,483.8 L431.1,483.8 L431.1,604.7 C431.1,625.2 444.8,638.3 466.3,638.3 C494.6,638.3 512.9,615.5 512.9,580.6 L512.9,483.8 L539.9,483.8 L539.9,654.5 L515.5,654.5 Z M738.4,659.1 C729.6,661.4 725.4,662 719.8,662 C702.2,662 693.7,654.2 691.8,636.9 C672.6,654.5 655.3,662 633.8,662 C599.3,662 577.8,642.5 577.8,611.5 C577.8,589.3 587.9,574 607.8,565.9 C618.2,561.7 624.1,560.4 662.5,555.5 C684,552.9 690.8,548 690.8,536.6 L690.8,529.4 C690.8,513.1 677.1,504 652.7,504 C627.3,504 614.9,513.4 612.6,534.3 L585.2,534.3 C585.9,517.4 589.1,507.6 596.9,498.8 C608.3,486.1 628.8,478.9 653.6,478.9 C695.6,478.9 717.8,495.2 717.8,525.5 L717.8,625.9 C717.8,634.4 723,639.3 732.5,639.3 C734.1,639.3 735.4,639.3 738.4,638.6 L738.4,659.1 Z M690.8,570.1 C681.7,574.3 675.8,575.6 647.1,579.5 C618.1,583.7 606,592.9 606,610.8 C606,628.1 618.4,638.2 639.6,638.2 C655.6,638.2 668.9,633 680,622.9 C688.1,615.4 690.8,609.9 690.8,600.7 L690.8,570.1 Z"/>
  <path fill="#808080" d="M448.686,946.391 Q427.989,945.32 407.543,942.467 L409.044,931.71 Q429.022,934.498 449.246,935.544 Z M0.609,448.695 Q1.679,428 4.532,407.553 L15.289,409.054 Q12.501,429.033 11.456,449.256 Z M946.39,498.324 Q945.32,519.019 942.466,539.467 L931.709,537.965 Q934.497,517.985 935.543,497.763 Z M895.439,258.536 Q904.823,276.967 912.565,296.141 L902.494,300.207 Q894.929,281.472 885.76,263.464 Z M288.424,909.456 Q269.408,901.367 251.148,891.631 L256.259,882.047 Q274.098,891.559 292.675,899.461 Z M37.54,288.433 Q45.629,269.416 55.364,251.157 L64.948,256.267 Q55.437,274.106 47.535,292.684 Z M909.452,658.586 Q901.361,677.604 891.627,695.86 L882.043,690.75 Q891.553,672.914 899.457,654.334 Z M926.348,335.081 Q932.391,354.855 936.688,375.077 L926.064,377.335 Q921.865,357.576 915.961,338.255 Z M580.051,12.102 Q600.196,16.75 619.861,23.136 L616.507,33.466 Q597.293,27.227 577.609,22.685 Z M819.747,796.43 Q805.643,811.545 790.284,825.382 L783.014,817.313 Q798.023,803.791 811.806,789.02 Z M127.239,150.585 Q141.343,135.469 156.701,121.631 L163.971,129.7 Q148.963,143.223 135.18,157.995 Z M150.578,819.754 Q135.462,805.649 121.624,790.291 L129.694,783.021 Q143.215,798.029 157.987,811.813 Z M688.471,895.483 Q670.048,904.893 650.892,912.645 L646.818,902.576 Q665.532,895.004 683.531,885.811 Z M258.511,51.526 Q276.935,42.115 296.09,34.363 L300.164,44.431 Q281.451,52.004 263.452,61.198 Z M611.944,926.446 Q592.176,932.487 571.942,936.77 L569.693,926.144 Q589.459,921.96 608.77,916.059 Z M51.521,688.48 Q42.111,670.056 34.359,650.901 L44.427,646.827 Q52,665.54 61.194,683.539 Z M76.373,215.586 Q87.647,198.269 100.395,181.98 L108.948,188.674 Q96.491,204.591 85.475,221.511 Z M870.616,731.431 Q859.343,748.746 846.593,765.036 L838.04,758.341 Q850.499,742.423 861.514,725.505 Z M215.577,870.621 Q198.26,859.347 181.972,846.599 L188.666,838.046 Q204.583,850.503 221.503,861.519 Z M20.557,611.954 Q14.516,592.187 10.232,571.952 L20.858,569.702 Q25.043,589.47 30.944,608.78 Z M335.037,20.56 Q354.805,14.519 375.039,10.234 L377.288,20.86 Q357.522,25.045 338.211,30.947 Z M188.561,95.336 Q205.071,82.874 222.58,71.906 L228.346,81.11 Q211.237,91.827 195.105,104.005 Z M531.203,943.545 Q510.725,946.036 490.022,946.747 L489.649,935.892 Q509.882,935.198 529.891,932.763 Z M415.777,3.458 Q436.254,0.965 456.959,0.253 L457.332,11.108 Q437.099,11.804 417.089,14.239 Z M758.423,851.676 Q741.913,864.137 724.403,875.105 L718.638,865.9 Q735.748,855.183 751.88,843.007 Z M3.456,531.213 Q0.965,510.736 0.253,490.032 L11.108,489.659 Q11.803,509.892 14.238,529.901 Z M95.33,758.431 Q82.869,741.922 71.901,724.411 L81.105,718.646 Q91.822,735.756 103.999,751.888 Z M498.309,0.619 Q518.954,1.701 539.426,4.577 L537.915,15.332 Q517.912,12.523 497.74,11.465 Z M658.562,37.595 Q677.592,45.667 695.849,55.366 L690.753,64.957 Q672.916,55.481 654.321,47.594 Z M943.505,415.826 Q946.023,436.345 946.743,457.003 L935.888,457.382 Q935.185,437.197 932.724,417.149 Z M934.968,580.095 Q930.327,600.246 923.936,619.903 L913.607,616.545 Q919.85,597.342 924.384,577.658 Z M366.914,934.97 Q346.764,930.33 327.107,923.94 L330.465,913.61 Q349.667,919.853 369.352,924.386 Z M12.028,366.924 Q16.667,346.774 23.057,327.116 L33.387,330.474 Q27.144,349.678 22.612,369.361 Z"/>
</svg>
