<svg xmlns="http://www.w3.org/2000/svg" version="1.0" viewBox="0 0 2048 2048">
  <defs/>
  <path fill="#306998" d="M1011.939,0.018 C928.413,0.405 848.648,7.528 778.464,19.948 C571.707,56.475 534.169,132.927 534.169,273.923 L534.169,460.133 L1022.758,460.133 L1022.758,522.204 L350.806,522.204 C208.81,522.204 84.473,607.552 45.581,769.914 C0.721,956.019 -1.269,1072.151 45.581,1266.475 C80.313,1411.123 163.254,1514.187 305.25,1514.187 L473.239,1514.187 L473.239,1290.962 C473.239,1129.694 612.77,987.444 778.464,987.444 L1266.483,987.444 C1402.331,987.444 1510.778,875.593 1510.778,739.164 L1510.778,273.923 C1510.778,141.512 1399.075,42.047 1266.483,19.948 C1182.55,5.975 1095.465,-0.37 1011.939,0.017 Z M747.714,149.783 C798.181,149.783 839.395,191.669 839.395,243.173 C839.395,294.493 798.181,335.992 747.714,335.992 C697.065,335.992 656.032,294.493 656.032,243.173 C656.032,191.669 697.065,149.783 747.714,149.783 Z"/>
  <path fill="#ffd43b" d="M1571.7080078125,522.2039794921875 L1755.071044921875,522.2039794921875 C1897.25,522.2039794921875 1964.2740478515625,628.5549926757812 1999.366943359375,769.9140014648438 C2048.2060546875,966.2459716796875 2050.376953125,1113.427001953125 1999.366943359375,1266.4749755859375 C1949.9840087890625,1415.1409912109375 1897.0699462890625,1514.18701171875 1755.071044921875,1514.18701171875 L1022.7579956054688,1514.18701171875 L1022.7579956054688,1576.2559814453125 L1510.7779541015625,1576.2559814453125 L1510.7779541015625,1762.467041015625 C1510.7779541015625,1903.4610595703125 1389.488037109375,1975.134033203125 1266.4830322265625,2010.748046875 C1178.0709228515625,2036.4017333984375 1098.0452880859375,2047.9227294921875 1021.706787109375,2048 L1020.1608276367188,2048 C937.2898559570312,2047.9161376953125 858.732177734375,2034.3499755859375 778.4639892578125,2010.748046875 C649.3090209960938,1972.759033203125 534.1690063476562,1894.876953125 534.1690063476562,1762.467041015625 L534.1690063476562,1297.2249755859375 C534.1690063476562,1163.35400390625 644.7880249023438,1048.9449462890625 778.4639892578125,1048.9449462890625 L1266.4830322265625,1048.9449462890625 C1429.1009521484375,1048.9449462890625 1571.7080078125,907.3709716796875 1571.7080078125,739.1640014648438 Z M1297.2330322265625,1700.39599609375 C1246.7659912109375,1700.39599609375 1205.552001953125,1741.89599609375 1205.552001953125,1793.218017578125 C1205.552001953125,1844.718994140625 1246.7659912109375,1886.6080322265625 1297.2330322265625,1886.6080322265625 C1347.8819580078125,1886.6080322265625 1388.916015625,1844.718994140625 1388.916015625,1793.218017578125 C1388.916015625,1741.89599609375 1347.8819580078125,1700.39599609375 1297.2330322265625,1700.39599609375 Z"/>
</svg>
