<svg xmlns="http://www.w3.org/2000/svg" version="1.0" viewBox="0 0 2048 2048">
    <defs>
        <linearGradient id="a" x1="26.6489" x2="135.6652" y1="20.6038" y2="114.3977"
            gradientTransform="matrix(.56254 0 0 .56797 -14.9911 -11.7024)"
            gradientUnits="userSpaceOnUse">
            <stop offset="0" stop-color="#5a9fd4" />
            <stop offset="1" stop-color="#306998" />
        </linearGradient>
        <linearGradient id="b" x1="150.9611" x2="112.0314" y1="192.3518" y2="137.273"
            gradientTransform="matrix(.56254 0 0 .56797 -14.9911 -11.7024)"
            gradientUnits="userSpaceOnUse">
            <stop offset="0" stop-color="#ffd43b" />
            <stop offset="1" stop-color="#ffe873" />
        </linearGradient>
    </defs>
    <path fill="url(#a)"
        d="M54.9188.001c-4.5837.0212-8.961.4121-12.8125 1.0937C30.76 3.0992 28.7 7.2947 28.7 15.0322v10.2187h26.8125v3.4063h-36.875c-7.7924 0-14.6157 4.6837-16.75 13.5937-2.4618 10.213-2.571 16.586 0 27.25 1.906 7.9379 6.4576 13.5938 14.25 13.5938h9.2188v-12.25c0-8.85 7.6571-16.6563 16.75-16.6563h26.7812c7.455 0 13.4063-6.1381 13.4063-13.625V15.0322c0-7.2664-6.13-12.7248-13.4063-13.9375-4.606-.7668-9.385-1.115-13.9687-1.0938zm-14.5 8.2187c2.7695 0 5.0312 2.2986 5.0312 5.125 0 2.8163-2.2617 5.0937-5.0312 5.0937-2.7795 0-5.0313-2.2774-5.0313-5.0937 0-2.8264 2.2518-5.125 5.0313-5.125z"
        transform="translate(11.1858 .0002) scale(18.22242)" />
    <path fill="url(#b)"
        d="M85.6375 28.6572v11.9062c0 9.2308-7.8259 17-16.75 17H42.1063c-7.3358 0-13.4063 6.2785-13.4063 13.625v25.5313c0 7.2663 6.3186 11.5403 13.4063 13.625 8.4873 2.4956 16.6262 2.9466 26.7812 0 6.7502-1.9544 13.4063-5.8876 13.4063-13.625V86.5009H55.5125v-3.4062H95.7c7.7925 0 10.6963-5.4354 13.4063-13.5938 2.7993-8.3989 2.6802-16.4758 0-27.25-1.9258-7.7574-5.6039-13.5937-13.4063-13.5937ZM70.575 93.3134c2.7795 0 5.0313 2.2774 5.0313 5.0938 0 2.8263-2.2518 5.125-5.0313 5.125-2.7695 0-5.0312-2.2987-5.0312-5.125 0-2.8164 2.2617-5.0938 5.0312-5.0938z"
        transform="translate(11.1858 .0002) scale(18.22242)" />
</svg>
